<svg width="24" height="24" xmlns="http://www.w3.org/2000/svg" viewBox="0 0 24 24" aria-hidden="true"><path d="M19.898 17.214a3.079 3.079 0 00-2.991-2.383 3.08 3.08 0 00-2.992 2.383H9.97a3.079 3.079 0 00-2.992-2.383 3.08 3.08 0 00-2.992 2.383H2.4V5.402h11.264v7.678H20.5a11.186 11.186 0 011.078 4.134h-1.68zm-2.991 2.383a1.682 1.682 0 010-3.364 1.681 1.681 0 010 3.364zm-9.928 0a1.682 1.682 0 010-3.364 1.681 1.681 0 010 3.364zm8.085-11.32h1.46c1.24.893 2.34 2.067 3.195 3.401h-4.655V8.276zM23 17.914c0-1.88-.413-3.703-1.227-5.419-1.044-2.203-2.69-4.156-4.63-5.498l-.18-.124h-1.899V4H1.002v14.616h2.987A3.08 3.08 0 006.979 21a3.08 3.08 0 002.991-2.384h3.944A3.08 3.08 0 0016.907 21a3.08 3.08 0 002.99-2.384h3.104v-.7z" fill="#253746" fill-rule="evenodd"/></svg>